<svg
      data-name="Tecko Logo"
      xmlns="http://www.w3.org/2000/svg"
      width="260.15971333795034"
      height="345.8470458984375"
      viewBox="0 0 188.04664723032067 249.98250728862973"
      class="css-1j8o68f"
    >
	<title>Tecko Logo</title>
	<defs id="SvgjsDefs18241"></defs>
	<g
        id="SvgjsG18242"
        featurekey="T6b0uQ-0"
        transform="matrix(5.876457725947521,0,0,5.876457725947521,0,0)"
        fill="#7f0fff"
      >
		<g xmlns="http://www.w3.org/2000/svg" display="none">
			<g display="inline">
				<circle fill="#7f0fff" cx="16" cy="16" r="16"></circle>
			</g>
			<circle display="inline" cx="16.135" cy="21.822" r="4.198"></circle>
			<circle display="inline" cx="21.178" cy="11.437" r="2.785"></circle>
			<polyline
            display="inline"
            fill="none"
            stroke="#7f0fff"
            stroke-width="2"
            stroke-miterlimit="10"
            points="8.582,8.652    12.873,11.437 8.582,14.222  "
          ></polyline>
		</g>
		<g xmlns="http://www.w3.org/2000/svg" display="none">
			<circle
            display="inline"
            fill="#7f0fff"
            cx="16.135"
            cy="21.822"
            r="4.198"
          ></circle>
			<circle
            display="inline"
            fill="#7f0fff"
            cx="21.178"
            cy="11.437"
            r="2.785"
          ></circle>
			<polygon
            display="inline"
            fill="#7f0fff"
            points="9.126,15.06 8.038,13.382 11.035,11.437 8.037,9.491 9.127,7.813 14.709,11.437     "
          ></polygon>
		</g>
		<g xmlns="http://www.w3.org/2000/svg" display="none">
			<rect
            x="-52.667"
            y="-125.339"
            display="inline"
            fill="#7f0fff"
            width="416.333"
            height="207.667"
          ></rect>
		</g>
		<g xmlns="http://www.w3.org/2000/svg">
			<circle cx="16.135" cy="21.822" r="4.198"></circle>
			<circle cx="21.178" cy="11.437" r="2.785"></circle>
			<polygon
            points="9.127,7.813 8.037,9.491 11.035,11.437 8.038,13.382 9.126,15.06 14.709,11.437  "
          ></polygon>
			<path
            d="M27.488,0H4.512C2.024,0,0,2.024,0,4.511v22.977C0,29.975,2.024,32,4.512,32h22.977C29.976,32,32,29.975,32,27.488V4.511   C32,2.024,29.976,0,27.488,0z M30,27.488C30,28.873,28.873,30,27.488,30H4.512C3.127,30,2,28.873,2,27.488V4.511   C2,3.127,3.127,2,4.512,2h22.977C28.873,2,30,3.127,30,4.511V27.488z"
          ></path>
		</g>
		<g xmlns="http://www.w3.org/2000/svg" display="none">
			<path
            display="inline"
            d="M27.488,0H4.512C2.024,0,0,2.024,0,4.511v22.977C0,29.975,2.024,32,4.512,32h22.977   C29.976,32,32,29.975,32,27.488V4.511C32,2.024,29.976,0,27.488,0z M8.038,13.382l2.997-1.945L8.037,9.491l1.09-1.678l5.582,3.624   L9.126,15.06L8.038,13.382z M16.135,26.02c-2.319,0-4.198-1.88-4.198-4.198c0-2.319,1.88-4.198,4.198-4.198   c2.319,0,4.198,1.88,4.198,4.198C20.333,24.141,18.454,26.02,16.135,26.02z M21.178,14.222c-1.538,0-2.785-1.247-2.785-2.785   c0-1.538,1.247-2.785,2.785-2.785c1.538,0,2.785,1.247,2.785,2.785C23.963,12.975,22.716,14.222,21.178,14.222z"
          ></path>
		</g>
		<g xmlns="http://www.w3.org/2000/svg" display="none">
			<g display="inline">
				<path
              fill="#7f0fff"
              d="M16,31C7.729,31,1,24.271,1,16S7.729,1,16,1s15,6.729,15,15S24.271,31,16,31z"
            ></path>
				<path
              fill="#7f0fff"
              d="M16,2c7.72,0,14,6.28,14,14c0,7.72-6.28,14-14,14S2,23.72,2,16C2,8.28,8.28,2,16,2 M16,0    C7.163,0,0,7.163,0,16s7.163,16,16,16s16-7.163,16-16S24.837,0,16,0L16,0z"
            ></path>
			</g>
			<circle
            display="inline"
            fill="#7f0fff"
            cx="16.135"
            cy="21.822"
            r="4.198"
          ></circle>
			<circle
            display="inline"
            fill="#7f0fff"
            cx="21.178"
            cy="11.437"
            r="2.785"
          ></circle>
			<polygon
            display="inline"
            fill="#7f0fff"
            points="9.126,15.06 8.038,13.382 11.035,11.437 8.037,9.491 9.127,7.813 14.709,11.437     "
          ></polygon>
		</g>
		<g xmlns="http://www.w3.org/2000/svg" display="none">
			<g display="inline">
				<path
              fill="#7f0fff"
              d="M16,0C7.163,0,0,7.163,0,16s7.163,16,16,16s16-7.163,16-16S24.837,0,16,0z M8.038,13.382l2.997-1.945    L8.037,9.491l1.09-1.678l5.582,3.624L9.126,15.06L8.038,13.382z M16.135,26.02c-2.319,0-4.198-1.88-4.198-4.198    c0-2.319,1.88-4.198,4.198-4.198c2.319,0,4.198,1.88,4.198,4.198C20.333,24.141,18.454,26.02,16.135,26.02z M21.178,14.222    c-1.538,0-2.785-1.247-2.785-2.785c0-1.538,1.247-2.785,2.785-2.785c1.538,0,2.785,1.247,2.785,2.785    C23.963,12.975,22.716,14.222,21.178,14.222z"
            ></path>
			</g>
		</g>
	</g>
	<g
        id="SvgjsG18243"
        featurekey="nameLeftFeature-0"
        transform="matrix(2.280412617507917,0,0,2.280412617507917,0.5546340952797866,200.77647799527486)"
        fill="#420084"
      >
		<path
          d="M3.6426 17.3242 l1.5332 0 l0 -9.541 l-1.7969 0 l0 1.9141 l-3.1836 0 l0 -4.502 l13.467 0 l0 4.502 l-3.2031 0 l0 -1.9141 l-2.041 0 l0 9.541 l1.5625 0 l0 2.6758 l-6.3379 0 l0 -2.6758 z M15.06834375 5.195 l11.777 0 l0 5.0488 l-3.1836 0 l0 -2.0996 l-3.7988 0 l0 2.9199 l2.9395 0 l0 2.832 l-2.9395 0 l0 3.4277 l3.7988 0 l0 -2.627 l3.1836 0 l0 5.3027 l-11.777 0 l0 -2.6758 l1.5527 0 l0 -9.1797 l-1.5527 0 l0 -2.9492 z M38.24240625 9.697 q-0.546875 -0.78125 -0.986328125 -1.108398438 t-0.94727 -0.46875 t-1.0645 -0.1416 q-0.8203125 0 -1.5234375 0.3662109375 t-1.2158 0.99609 t-0.80566 1.4648 t-0.29297 1.7725 q0 0.947265625 0.2880859375 1.782226563 t0.7959 1.46 t1.2109 0.99121 t1.543 0.36621 q0.5859375 0 1.09375 -0.1904296875 t0.92285 -0.50293 t0.72754 -0.71777 t0.48828 -0.84473 l3.1445 0.87891 q-0.302734375 0.95703125 -0.888671875 1.772460938 t-1.4111 1.4111 t-1.8555 0.9375 t-2.2217 0.3418 q-1.005859375 0 -1.923828125 -0.2734375 t-1.7139 -0.77148 t-1.4453 -1.2012 t-1.1084 -1.5576 t-0.71289 -1.8359 t-0.25391 -2.0459 q0 -1.591796875 0.556640625 -2.983398438 t1.5234 -2.4316 t2.2705 -1.6406 t2.8076 -0.60059 q1.201171875 0 2.021484375 0.2978515625 t1.8066 1.1768 l2.1875 0 l0 3.3008 l-3.0176 0 z M43.7206875 5.195 l6.3379 0 l0 2.6855 l-1.5625 0 l0 4.3066 l4.7363 -4.1309 l0 -2.8613 l5.0488 0 l0 2.8809 l-1.1035 0 l-4.9316 4.2383 l4.7266 4.7852 l1.2012 0 l0 2.9004 l-4.9121 0 l0 -2.9004 l-4.7656 -4.7656 l0 4.9902 l1.5625 0 l0 2.6758 l-6.3379 0 l0 -2.6758 l1.5332 0 l0 -9.4434 l-1.5332 0 l0 -2.6855 z"
        ></path>
	</g>
	<g
        id="SvgjsG18244"
        featurekey="inlineSymbolFeature-0"
        transform="matrix(0.3887269193391642,0,0,0.3887269193391642,136.05636540330417,210.05636540330417)"
        fill="#7f0fff"
      >
		<g xmlns="http://www.w3.org/2000/svg" display="none">
			<circle
            display="inline"
            fill="#7f0fff"
            cx="50"
            cy="50"
            r="45"
          ></circle>
		</g>
		<g xmlns="http://www.w3.org/2000/svg">
			<polygon
            points="55,15 65,15 65,5 55,5 45,5 35,5 35,15 45,15  "
          ></polygon>
			<polygon
            points="25,25 35,25 35,15 25,15 15,15 15,25 15,35 25,35  "
          ></polygon>
			<polygon
            points="15,45 15,35 5,35 5,45 5,55 5,65 15,65 15,55  "
          ></polygon>
			<polygon
            points="25,75 25,65 15,65 15,75 15,85 25,85 35,85 35,75  "
          ></polygon>
			<polygon
            points="45,85 35,85 35,95 45,95 55,95 65,95 65,85 55,85  "
          ></polygon>
			<polygon
            points="75,75 65,75 65,85 75,85 85,85 85,75 85,65 75,65  "
          ></polygon>
			<polygon
            points="85,45 85,55 85,65 95,65 95,55 95,45 95,35 85,35  "
          ></polygon>
			<polygon
            points="75,25 75,35 85,35 85,25 85,15 75,15 65,15 65,25  "
          ></polygon>
		</g>
	</g>
	<g
        id="SvgjsG18245"
        featurekey="nameRightFeature-0"
        transform="matrix(2.670255906930643,0,0,2.670255906930643,174.37540816024836,195.71682308277448)"
        fill="#420084"
      >
		<path
          d="M1.3574 18.584 q0 -0.361328125 0.1318359375 -0.6787109375 t0.36621 -0.55664 t0.55176 -0.37598 t0.68848 -0.13672 q0.3515625 0 0.6689453125 0.13671875 t0.55176 0.37598 t0.37109 0.55664 t0.13672 0.67871 t-0.13672 0.67871 t-0.37109 0.55176 t-0.55176 0.37109 t-0.66895 0.13672 q-0.37109375 0 -0.6884765625 -0.13671875 t-0.55176 -0.37109 t-0.36621 -0.55176 t-0.13184 -0.67871 z M1.3574 4.6 l3.6035 0 l-0.40039 10.42 l-2.8027 0 z"
        ></path>
	</g>
</svg>